<?xml version="1.0" standalone="no"?>
<!DOCTYPE svg PUBLIC "-//W3C//DTD SVG 20010904//EN"
 "http://www.w3.org/TR/2001/REC-SVG-20010904/DTD/svg10.dtd">
<svg version="1.0" xmlns="http://www.w3.org/2000/svg"
 width="256.000000pt" height="256.000000pt" viewBox="0 0 256.000000 256.000000"
 preserveAspectRatio="xMidYMid meet">

<g transform="translate(0.000000,256.000000) scale(0.100000,-0.100000)"
fill="#000000" stroke="none">
<path d="M1325 1970 c50 -5 110 -11 135 -14 40 -5 41 -4 15 5 -16 5 -77 11
-135 14 l-105 3 90 -8z"/>
<path d="M1168 1963 c12 -2 32 -2 45 0 12 2 2 4 -23 4 -25 0 -35 -2 -22 -4z"/>
<path d="M1085 1950 c-25 -11 1 -11 35 0 20 6 21 8 5 8 -11 0 -29 -3 -40 -8z"/>
<path d="M1000 1910 c-8 -5 -10 -10 -5 -10 6 0 17 5 25 10 8 5 11 10 5 10 -5
0 -17 -5 -25 -10z"/>
<path d="M1612 1895 c26 -14 49 -29 53 -35 3 -5 11 -10 17 -10 6 0 0 8 -13 19
-28 21 -84 51 -96 51 -4 -1 13 -12 39 -25z"/>
<path d="M946 1883 c-58 -31 -146 -136 -146 -174 0 -8 9 5 21 28 19 39 100
123 144 150 29 17 15 15 -19 -4z"/>
<path d="M1707 1821 c12 -11 30 -34 39 -51 10 -16 22 -30 26 -30 6 0 39 -97
51 -155 4 -16 5 -15 6 5 2 43 -43 170 -60 170 -4 0 -17 15 -28 34 -12 19 -29
37 -39 41 -13 5 -12 1 5 -14z"/>
<path d="M1248 1773 c28 -2 76 -2 105 0 28 2 5 3 -53 3 -58 0 -81 -1 -52 -3z"/>
<path d="M1168 1763 c7 -3 16 -2 19 1 4 3 -2 6 -13 5 -11 0 -14 -3 -6 -6z"/>
<path d="M1418 1763 c7 -3 16 -2 19 1 4 3 -2 6 -13 5 -11 0 -14 -3 -6 -6z"/>
<path d="M1455 1750 c3 -5 8 -10 11 -10 2 0 4 5 4 10 0 6 -5 10 -11 10 -5 0
-7 -4 -4 -10z"/>
<path d="M1075 1723 c-16 -9 -53 -38 -82 -64 -28 -27 -57 -49 -64 -49 -7 0
-10 -3 -6 -6 9 -10 73 33 92 62 9 14 40 36 68 50 29 13 45 24 37 24 -8 -1 -28
-8 -45 -17z"/>
<path d="M1518 1713 c23 -15 44 -35 47 -44 3 -10 12 -20 20 -23 25 -9 -26 53
-61 75 -48 29 -53 23 -6 -8z"/>
<path d="M795 1671 c-3 -5 -1 -12 5 -16 5 -3 10 1 10 9 0 18 -6 21 -15 7z"/>
<path d="M824 1623 c11 -13 26 -23 35 -22 14 0 14 1 1 6 -8 3 -24 13 -35 22
-20 16 -20 16 -1 -6z"/>
<path d="M1615 1590 c3 -14 8 -57 11 -96 l7 -72 -284 -4 c-241 -4 -292 -7
-334 -22 -27 -10 -52 -21 -55 -25 -3 -3 -27 -17 -55 -31 -46 -22 -104 -74
-105 -93 0 -4 14 8 31 27 40 47 176 112 259 125 36 6 175 11 309 11 l244 0 -6
78 c-3 43 -11 89 -17 102 l-11 25 6 -25z"/>
<path d="M1832 1115 c-2 -404 -4 -453 -19 -475 -9 -14 -22 -28 -27 -32 -17
-12 -91 -9 -104 4 -9 9 -12 9 -12 1 0 -25 81 -34 119 -13 51 26 51 36 48 517
l-2 448 -3 -450z"/>
<path d="M765 1209 c-9 -17 -15 -33 -13 -35 3 -2 12 12 21 31 21 43 13 47 -8
4z"/>
<path d="M1150 1229 c-30 -4 -66 -13 -80 -19 -24 -10 -24 -10 5 -4 76 16 185
23 363 24 l192 0 0 -67 c0 -38 -7 -97 -14 -133 -8 -36 -12 -67 -11 -68 10 -11
27 86 32 176 l6 102 -219 -1 c-121 -1 -244 -5 -274 -10z"/>
<path d="M1028 1192 c-1 -4 -20 -21 -40 -36 -21 -16 -38 -33 -38 -38 0 -5 10
1 23 13 12 12 35 29 50 39 16 10 24 21 19 24 -6 3 -12 3 -14 -2z"/>
<path d="M736 1145 c-3 -9 -6 -24 -5 -33 0 -9 5 -4 10 12 9 32 6 48 -5 21z"/>
<path d="M936 1078 c-8 -30 -6 -138 2 -160 4 -10 7 28 7 82 0 55 -1 100 -1
100 -1 0 -4 -10 -8 -22z"/>
<path d="M723 1005 c0 -44 2 -61 4 -37 2 23 2 59 0 80 -2 20 -4 1 -4 -43z"/>
<path d="M1554 911 c-16 -22 -48 -49 -71 -62 -23 -13 -40 -25 -38 -27 9 -9 95
50 116 81 13 17 28 35 34 39 7 5 7 8 -1 8 -5 0 -23 -18 -40 -39z"/>
<path d="M731 899 c-1 -20 19 -81 30 -94 5 -5 3 11 -5 35 -26 80 -24 77 -25
59z"/>
<path d="M957 879 c7 -7 15 -10 18 -7 3 3 -2 9 -12 12 -14 6 -15 5 -6 -5z"/>
<path d="M980 855 c0 -8 63 -45 75 -45 6 1 -2 8 -17 16 -16 8 -28 19 -28 24 0
6 -7 10 -15 10 -8 0 -15 -2 -15 -5z"/>
<path d="M1078 793 c7 -3 16 -2 19 1 4 3 -2 6 -13 5 -11 0 -14 -3 -6 -6z"/>
<path d="M1330 788 c-25 -5 -85 -7 -135 -4 -64 3 -79 2 -50 -4 57 -13 162 -10
220 5 58 15 32 17 -35 3z"/>
<path d="M770 786 c0 -4 14 -21 30 -38 17 -16 30 -26 30 -21 0 5 -13 22 -30
38 -16 16 -30 25 -30 21z"/>
<path d="M1595 726 c-22 -22 -58 -50 -80 -63 -46 -26 -40 -31 8 -7 18 9 48 32
67 53 l35 36 5 -52 c3 -28 8 -54 11 -57 4 -5 1 108 -4 125 -1 3 -20 -12 -42
-35z"/>
<path d="M862 681 c7 -11 15 -18 19 -16 9 6 59 -18 59 -28 0 -5 5 -5 11 -1 6
4 -11 19 -42 35 -62 34 -63 34 -47 10z"/>
<path d="M970 630 c0 -5 5 -10 11 -10 5 0 7 5 4 10 -3 6 -8 10 -11 10 -2 0 -4
-4 -4 -10z"/>
<path d="M1390 610 c-20 -6 -21 -8 -5 -8 11 0 29 3 40 8 25 11 -1 11 -35 0z"/>
<path d="M1038 603 c6 -2 18 -2 25 0 6 3 1 5 -13 5 -14 0 -19 -2 -12 -5z"/>
<path d="M1158 586 c48 -5 108 -5 145 0 53 8 42 9 -83 9 -140 0 -142 0 -62 -9z"/>
</g>
</svg>
